<svg version="1.1" id="Layer_1" xmlns="http://www.w3.org/2000/svg" xmlns:xlink="http://www.w3.org/1999/xlink" x="0px" y="0px"
	 width="100%" viewBox="0 0 896 656" enable-background="new 0 0 896 656" xml:space="preserve">
<path fill="#000000" opacity="1.000000" stroke="none" 
	d="
M491.000000,657.000000 
	C467.979095,657.000000 444.958221,657.000000 421.230255,656.765869 
	C411.716583,651.747986 406.384918,644.092590 402.825867,635.007324 
	C401.490570,631.598755 400.173859,628.171753 399.084351,624.679688 
	C391.550293,600.531555 384.089783,576.360535 376.579742,552.204895 
	C374.327789,544.961548 374.308380,545.014282 367.472321,548.071777 
	C328.563873,565.474182 289.651276,582.867249 250.714584,600.206299 
	C248.891815,601.018005 247.063812,602.543213 244.162613,601.389709 
	C255.080002,574.626038 265.903259,548.093140 276.726501,521.560242 
	C276.358948,521.055359 275.991394,520.550537 275.623840,520.045715 
	C238.560318,528.589783 201.496811,537.133911 164.433304,545.677979 
	C164.142319,545.173096 163.851349,544.668213 163.560364,544.163330 
	C180.888168,522.348633 198.215958,500.533966 215.630508,478.610046 
	C212.862793,476.828003 211.150284,477.139618 209.533768,477.281799 
	C202.577652,477.893738 195.631989,478.623444 188.680450,479.288574 
	C163.185715,481.727844 137.687302,484.129028 112.195694,486.600403 
	C85.865761,489.153046 59.533558,491.687561 33.219913,494.400391 
	C22.471853,495.508453 11.640349,495.917236 1.000000,498.000000 
	C1.000000,497.250000 1.000000,496.500000 1.337567,495.281433 
	C3.243581,493.883514 4.917943,493.094757 6.365176,492.004517 
	C63.988754,448.594879 121.594666,405.161804 179.179794,361.701172 
	C180.563400,360.656982 182.471237,359.940704 182.725815,357.133972 
	C133.588394,335.484772 84.318665,313.777283 35.062580,292.075806 
	C36.070019,289.256592 38.058598,288.976593 39.659393,288.255646 
	C58.795010,279.637543 77.956375,271.076660 97.093765,262.462494 
	C114.562256,254.599518 131.980011,246.622925 149.489227,238.852127 
	C153.400879,237.116089 153.802032,235.219025 150.906418,232.271774 
	C149.740326,231.084869 148.688461,229.786514 147.566010,228.555847 
	C134.541885,214.276215 120.894081,200.559998 108.594200,185.627991 
	C105.379051,181.724808 101.959564,177.895126 99.923332,173.463257 
	C101.208168,171.526993 102.839027,171.419601 104.223801,171.079330 
	C117.148911,167.903336 130.043732,164.572845 143.052612,161.777100 
	C158.336121,158.492569 173.637115,155.222977 189.196884,153.398270 
	C192.552948,153.004700 195.212036,152.090729 194.388992,147.418625 
	C189.939758,122.162125 192.115799,96.996910 196.228516,71.953819 
	C200.293243,47.202980 206.978470,23.228518 219.000000,1.000000 
	C219.750000,1.000000 220.500000,1.000000 221.883377,1.216620 
	C233.553513,7.823904 243.199997,15.988855 252.302689,24.836584 
	C261.987427,34.250011 271.189484,44.108250 279.792633,54.530739 
	C283.950439,59.567791 284.426453,59.470299 289.273376,55.351112 
	C292.062531,52.980743 295.098755,50.895020 297.826752,48.460415 
	C301.140106,45.503429 304.273499,45.595726 308.276581,47.404522 
	C326.828644,55.787273 346.051575,62.271618 365.895691,66.898140 
	C389.832489,72.478851 414.148285,74.416840 438.652557,75.254196 
	C464.336914,76.131889 489.947876,75.304855 515.424072,72.348267 
	C542.492249,69.206917 569.036865,62.780548 593.642944,51.184326 
	C606.519470,45.115959 615.322815,46.774845 623.982361,56.726204 
	C626.194092,59.267860 628.143433,59.273048 630.466248,56.468082 
	C647.730957,35.619530 666.244324,16.064198 689.000000,1.000000 
	C689.750000,1.000000 690.500000,1.000000 691.830933,1.276496 
	C697.252502,8.629191 700.461609,16.504673 703.311096,24.504190 
	C710.481384,44.633865 715.074097,65.345009 717.537048,86.593834 
	C719.847046,106.522263 720.717224,126.395157 717.451477,146.267883 
	C716.656311,151.106903 718.807068,152.988312 723.152466,153.538132 
	C746.295044,156.466339 769.008057,161.617264 791.658752,167.024918 
	C798.352661,168.623032 805.164917,170.032181 811.396240,172.556015 
	C811.521729,175.251572 810.049133,176.536224 808.996521,177.966675 
	C800.981812,188.858826 791.761169,198.713318 782.574890,208.600494 
	C775.317688,216.411438 768.196655,224.348953 760.932190,232.152939 
	C758.371887,234.903351 758.270996,236.987503 761.977600,238.599304 
	C762.893738,238.997696 763.785522,239.451614 764.696411,239.862579 
	C800.374573,255.959915 836.058533,272.044708 871.717957,288.183350 
	C873.429626,288.958008 875.714722,289.100677 876.453613,291.543457 
	C875.191040,292.984161 873.395203,293.501923 871.744812,294.229004 
	C827.243896,313.832977 782.738831,333.427490 738.231323,353.016510 
	C727.610291,357.691162 727.586182,358.056183 737.043457,365.186188 
	C779.877197,397.479218 822.639832,429.867096 865.566589,462.035980 
	C875.946472,469.814514 885.901611,478.197479 897.000000,485.000000 
	C897.000000,488.692902 897.000000,492.385834 896.644775,496.389252 
	C885.674683,494.461823 874.840210,494.135559 864.096741,493.030518 
	C838.942139,490.443207 813.784729,487.879791 788.618591,485.407654 
	C765.107056,483.098022 741.590942,480.827057 718.059082,478.739014 
	C711.247681,478.134644 704.413818,476.176331 695.872559,478.243195 
	C713.794922,500.830109 731.074463,522.606873 748.354065,544.383667 
	C747.989868,544.825562 747.625732,545.267517 747.261597,545.709412 
	C710.150940,537.126526 673.040283,528.543640 635.929565,519.960754 
	C635.585144,520.408081 635.240662,520.855469 634.896240,521.302795 
	C645.773499,547.999146 656.650818,574.695557 667.528137,601.391907 
	C667.054077,601.717346 666.580017,602.042786 666.105957,602.368164 
	C658.528809,599.022400 650.939941,595.702698 643.376404,592.326477 
	C610.080872,577.464111 576.800354,562.568359 543.494751,547.728699 
	C537.678040,545.136963 537.225769,545.442261 535.433472,551.219482 
	C527.742493,576.010254 519.993958,600.783203 512.331787,625.582886 
	C508.418030,638.250549 503.064911,649.890625 491.000000,657.000000 
M211.609711,167.920425 
	C212.907181,172.436234 215.925964,176.327026 216.865921,181.122726 
	C214.538208,181.336136 213.376709,179.975052 212.027145,179.086700 
	C205.068619,174.506226 198.098648,169.941086 191.215668,165.248825 
	C188.393509,163.324905 185.479004,162.867493 182.209061,163.581161 
	C163.835159,167.591309 145.445633,171.530319 127.085182,175.600784 
	C125.514427,175.949005 123.367813,175.742722 122.423698,178.125351 
	C126.386017,180.003601 130.461060,180.768707 134.463959,181.716751 
	C155.990234,186.815002 177.920929,190.297043 198.886505,197.627548 
	C205.680710,200.003098 212.477097,202.512222 218.581757,206.480652 
	C217.165482,209.373581 215.563065,211.024338 213.869781,212.639450 
	C199.929535,225.936279 183.253235,234.988220 166.126160,243.289963 
	C139.281937,256.301758 111.147858,266.356049 84.094963,278.891083 
	C78.542564,281.463806 72.742104,283.662628 66.959686,287.760742 
	C74.400055,288.251190 80.691315,287.191132 86.917816,286.390991 
	C121.791519,281.909424 156.796036,279.250763 191.940079,279.165222 
	C222.915909,279.089844 253.850876,280.775024 284.567535,284.942596 
	C303.223419,287.473816 321.706543,291.105621 339.030731,298.966339 
	C356.943604,307.094147 370.934052,318.981506 375.974579,338.935760 
	C378.437805,348.687256 379.102722,358.650085 377.650482,368.666931 
	C377.219574,371.639252 377.006287,374.367432 380.573273,375.654602 
	C399.359192,382.433655 417.411591,391.216034 436.832336,396.261414 
	C447.244446,398.966461 457.616333,400.020599 468.360291,397.565430 
	C489.945129,392.632996 509.768616,382.932617 530.384216,375.382263 
	C532.680054,374.541382 533.062378,373.026398 532.931091,370.696381 
	C532.612610,365.046051 532.534424,359.371643 532.620972,353.710938 
	C532.940918,332.776001 541.998474,316.651428 559.564636,305.283936 
	C571.782654,297.377411 585.390686,292.831207 599.428772,289.854309 
	C642.996155,280.615540 687.205994,278.849274 731.568848,279.423828 
	C740.888428,279.544525 750.200623,280.021576 759.516296,280.524994 
	C780.798645,281.675079 801.962097,283.912994 823.125854,286.290527 
	C829.439819,286.999817 835.766174,288.217224 842.559937,287.675568 
	C840.852234,285.736328 838.981567,285.035034 837.202759,284.134705 
	C812.648010,271.707062 786.731812,262.409546 761.641541,251.218246 
	C742.462708,242.663681 723.332275,233.953537 706.551270,221.042084 
	C701.215881,216.936966 695.811707,212.778793 692.028381,207.176712 
	C693.717957,204.583878 696.031067,203.863525 698.109741,202.944550 
	C707.567383,198.763397 717.271667,195.206894 727.334045,192.811691 
	C746.108459,188.342712 764.936157,184.097916 783.734802,179.730179 
	C785.372314,179.349716 787.235229,179.258926 788.491821,177.359726 
	C787.616028,176.914291 787.076904,176.486908 786.473328,176.355270 
	C766.481018,171.994461 746.482300,167.663071 726.485291,163.323761 
	C724.254028,162.839584 722.348572,163.273239 720.383850,164.608597 
	C712.807678,169.757874 705.118958,174.741791 697.454712,179.760773 
	C696.419495,180.438705 695.546021,181.776947 693.600525,180.714401 
	C708.511414,148.486984 709.496460,114.675507 704.702942,80.226624 
	C701.459106,95.185936 701.039490,110.766541 694.237549,124.183632 
	C691.900269,125.060295 692.379456,121.924309 690.176636,122.951439 
	C688.648560,130.544510 688.972717,138.805984 684.703857,146.024811 
	C682.756104,138.370575 682.879700,130.433365 679.882874,123.033424 
	C677.285706,137.035889 678.280396,151.742172 670.350037,165.781082 
	C668.717041,157.966797 670.793274,151.108276 668.213623,144.694153 
	C664.028381,154.255432 664.436218,165.281006 657.893188,173.913910 
	C657.604126,167.267029 658.113464,160.726685 657.233887,153.879715 
	C655.120239,155.241165 654.923035,156.984436 654.310547,158.486572 
	C650.525940,167.768570 646.182495,176.751312 640.083130,184.775909 
	C636.017883,190.124268 636.301025,191.255066 642.742981,193.578705 
	C653.100891,197.314835 663.735474,198.612106 674.687622,197.050705 
	C676.382141,196.809113 678.256714,196.073120 679.808350,197.745590 
	C679.345154,200.455292 677.422668,202.137741 675.752808,203.929474 
	C671.167419,208.849609 665.192566,211.334457 658.955994,213.364182 
	C649.789917,216.347351 640.376587,218.638947 632.169922,224.130219 
	C627.888000,226.995361 624.643372,231.026627 620.494873,234.116196 
	C619.064758,232.357162 619.741577,230.695145 620.028992,229.147583 
	C620.952881,224.173340 620.749146,219.237915 620.077454,214.247559 
	C618.580933,203.129929 612.843384,193.974075 606.778442,184.967117 
	C600.795166,176.081467 595.248596,166.994431 593.189270,156.276337 
	C592.433777,152.344009 592.041931,148.359726 593.473999,143.929901 
	C598.437012,153.453369 600.422913,153.685989 605.868225,145.194962 
	C610.268677,138.333069 614.341492,131.236145 618.169312,124.036003 
	C637.658142,87.377693 657.553223,50.983562 683.751526,18.496624 
	C684.432556,17.652090 685.384399,16.755032 684.660828,15.391601 
	C682.950684,15.224301 681.875549,16.365015 680.769897,17.307980 
	C646.686096,46.375843 617.937500,79.737686 598.418335,120.407677 
	C596.328735,124.761620 594.142090,125.741539 589.546875,124.483566 
	C576.127869,120.810043 562.508423,119.429253 548.528198,121.141907 
	C533.198730,123.019844 518.581848,127.458450 504.067505,132.322372 
	C481.744049,139.803268 458.965759,142.298889 435.617188,139.323715 
	C420.653687,137.417023 406.498383,132.341217 392.240601,127.782990 
	C368.083069,120.059784 343.789032,117.423607 319.093018,124.919464 
	C315.775665,125.926369 314.302124,124.678207 312.943085,121.831596 
	C295.234467,84.739113 269.880096,53.461639 239.574677,26.022173 
	C235.749893,22.559086 232.343521,18.351078 226.878082,16.348309 
	C226.920929,18.788525 228.198532,20.130384 229.266113,21.568985 
	C234.229233,28.257133 239.347565,34.836399 244.128464,41.652359 
	C262.543243,67.905655 277.439728,96.227753 292.583527,124.403938 
	C296.997650,132.616776 301.181427,140.993240 306.985321,148.361343 
	C310.352722,152.636307 312.497314,152.341034 315.136444,147.615143 
	C315.801941,146.423447 315.747742,144.553329 318.021790,144.473145 
	C318.126221,145.647018 318.346558,146.785767 318.309723,147.916122 
	C317.952423,158.874954 314.195770,168.733109 308.457733,177.927017 
	C304.665680,184.002945 300.700378,189.974640 297.044312,196.130585 
	C292.541138,203.712891 289.970917,211.868622 290.275360,220.837204 
	C290.424713,225.237167 290.355011,229.647690 291.284729,234.419342 
	C290.064423,234.012207 289.452423,234.001083 289.190125,233.692627 
	C279.761597,222.604233 266.974030,217.725815 253.456940,213.993607 
	C248.021851,212.492920 242.563675,210.659042 238.140503,206.903122 
	C235.064636,204.291275 231.664474,201.807526 230.728210,196.690002 
	C246.143036,198.434326 260.857147,198.407379 274.871460,189.798523 
	C265.124603,179.519592 260.322754,167.110428 254.413254,154.712540 
	C250.273300,161.316864 254.636185,167.765640 252.471680,174.754227 
	C246.199722,164.669388 246.472275,153.460434 242.723221,143.639191 
	C242.230164,143.689743 241.737091,143.740311 241.244019,143.790863 
	C241.244019,150.885239 241.244019,157.979614 241.244019,165.074005 
	C240.747620,165.102524 240.251221,165.131042 239.754807,165.159561 
	C232.628326,152.673172 233.480453,138.270676 230.593964,124.625641 
	C226.942200,131.290909 228.181046,138.942322 225.986908,145.979660 
	C221.182281,138.509354 222.273376,129.623734 220.117279,121.677208 
	C217.880676,122.020561 218.867783,124.343178 216.673737,124.780548 
	C209.372910,109.541351 208.319489,92.791878 206.111420,76.291878 
	C203.140640,90.903488 203.143661,105.539040 203.400513,120.171410 
	C203.682358,136.227478 206.094467,151.954300 211.609711,167.920425 
M514.927429,504.262360 
	C513.151550,507.796692 513.520874,512.242798 509.978394,516.414307 
	C509.135376,503.428497 509.761810,491.737274 511.497620,479.955414 
	C510.056274,480.269440 510.082367,481.268646 509.819489,481.962402 
	C508.936310,484.293427 508.051880,486.635803 507.380432,489.033356 
	C500.821136,512.454285 499.569519,536.552124 498.417053,560.648499 
	C498.115204,566.960205 498.716187,573.331482 497.259613,579.558167 
	C495.553223,586.852600 492.718201,593.499268 485.239258,599.127441 
	C487.689087,583.135254 487.137604,568.894836 479.645111,555.633972 
	C477.625305,564.271667 479.637665,573.565674 474.616547,581.452332 
	C471.966736,580.907043 472.547333,577.709900 470.208038,577.270447 
	C467.632568,578.217407 468.950073,582.211792 465.993347,582.856262 
	C463.176208,582.698486 463.232086,579.188660 460.644806,578.436707 
	C457.030151,581.667480 457.871521,586.983887 455.184967,591.145447 
	C451.991608,587.201111 453.518280,581.325195 449.173523,578.353271 
	C444.300568,583.805298 444.300568,583.805298 440.137573,576.705811 
	C437.635956,577.284058 438.589417,581.180115 435.493439,581.458679 
	C430.602844,573.624756 432.474731,564.353638 430.324677,555.884216 
	C422.762848,569.265015 422.697754,583.615967 424.123108,598.333191 
	C417.398224,592.854004 413.868195,585.948059 412.636169,577.854065 
	C410.851654,566.130859 411.699524,554.259338 410.761627,542.467041 
	C409.281982,523.862976 407.370728,505.370331 402.374329,487.328857 
	C401.856445,485.458862 401.633118,483.262177 399.003632,481.325043 
	C400.280243,492.619995 401.080017,503.024475 399.776154,513.864746 
	C397.302094,512.492920 397.244690,510.681244 396.784363,509.163818 
	C389.680481,485.746033 382.533600,462.341919 373.733429,439.487549 
	C365.320465,417.639008 355.415619,396.606995 340.159790,378.512299 
	C334.440796,371.729095 327.682129,366.304382 319.661621,361.808716 
	C319.825104,362.427948 319.816589,362.624908 319.910522,362.715179 
	C320.630432,363.406921 321.373718,364.074280 322.103485,364.755859 
	C337.756744,379.375488 350.472809,395.962891 358.124969,416.268524 
	C363.244324,429.853241 366.371613,444.018311 371.024902,457.696564 
	C380.619781,485.900330 385.099152,515.092346 389.494812,544.378296 
	C392.066742,561.513550 396.216858,578.298096 404.334747,593.879578 
	C408.836334,602.519958 415.457520,608.297729 424.788300,610.935974 
	C442.105133,615.832275 459.618134,615.395996 477.242767,612.937134 
	C492.264923,610.841309 502.518921,603.017761 508.378693,588.918823 
	C512.939575,577.945068 516.661621,566.746887 518.677368,555.076965 
	C524.446533,521.676025 528.390259,487.935028 539.588745,455.634155 
	C544.323486,441.977264 547.451721,427.773499 552.823608,414.293884 
	C562.216797,390.723633 577.756653,372.054810 598.071472,357.044678 
	C590.364624,360.867096 583.285095,365.571899 576.986450,371.430359 
	C564.587219,382.963196 555.909607,397.146820 548.430176,412.107391 
	C533.842224,441.286621 524.741638,472.484283 514.927429,504.262360 
M839.001953,453.534180 
	C832.479919,448.630554 825.953796,443.732330 819.436523,438.822418 
	C778.194763,407.752136 736.929382,376.713074 695.757812,345.550018 
	C692.029175,342.727753 688.717102,342.331482 684.303284,343.873444 
	C662.932434,351.339172 641.445984,358.474030 620.006592,365.743958 
	C614.240173,367.699280 608.494934,369.716858 602.739929,371.705872 
	C602.693298,372.188416 602.646729,372.670990 602.600159,373.153564 
	C691.460388,408.085327 780.320618,443.017059 869.180908,477.948822 
	C869.366699,477.593567 869.552490,477.238281 869.738281,476.883026 
	C859.685364,469.242523 849.632446,461.602020 839.001953,453.534180 
M171.319519,425.731689 
	C215.769241,408.284241 260.218964,390.836823 305.153442,373.199097 
	C302.707336,370.425903 300.471130,370.147858 298.474854,369.466858 
	C273.752106,361.033234 248.948639,352.828918 224.331116,344.099854 
	C219.047226,342.226227 215.407150,343.073944 211.167389,346.281342 
	C162.436432,383.146698 113.596146,419.867523 64.799507,456.646118 
	C55.735344,463.477966 46.735748,470.395416 37.706356,477.273376 
	C37.885136,477.565674 38.063915,477.857971 38.242699,478.150269 
	C82.362404,460.767090 126.482117,443.383911 171.319519,425.731689 
M623.747559,480.660614 
	C655.582275,496.329926 687.416992,511.999237 719.504150,527.792786 
	C720.178650,525.080750 719.369202,523.962830 718.703369,522.833008 
	C709.708923,507.570740 699.566467,493.164673 687.089905,480.500977 
	C672.277344,465.466339 655.052307,453.464264 638.023682,441.187439 
	C634.185425,438.420197 630.585144,437.604309 625.989685,438.534882 
	C607.405273,442.298157 588.765137,445.786316 570.146667,449.381500 
	C568.707642,449.659393 567.159607,449.755798 565.895935,452.159729 
	C584.997925,461.586334 604.029358,470.978180 623.747559,480.660614 
M208.474686,518.863586 
	C253.495148,496.834778 298.515594,474.805939 344.657684,452.228333 
	C342.251617,451.325592 341.359131,450.842285 340.408447,450.655884 
	C320.026886,446.659363 299.637054,442.704773 279.254608,438.712616 
	C277.291718,438.328156 275.657013,439.024536 274.046204,439.938263 
	C262.292786,446.605377 251.205048,454.234100 240.974380,463.069946 
	C220.230072,480.986084 204.895508,503.433105 188.944305,525.358765 
	C188.470703,526.009766 187.969116,526.718445 188.716187,528.428528 
	C195.084320,525.342163 201.439453,522.262146 208.474686,518.863586 
M674.057068,304.407440 
	C671.931824,299.522003 667.017883,296.829163 664.452087,292.390106 
	C662.402405,288.843994 659.729370,287.824768 655.879028,287.789001 
	C638.244507,287.625336 621.548828,291.873474 605.418091,298.514221 
	C597.721619,301.682770 591.601746,307.243317 586.948242,314.062897 
	C584.387329,317.815765 583.360657,322.601227 585.425476,326.895172 
	C587.289795,330.772186 591.351135,331.232910 595.401855,331.049042 
	C608.508423,330.454132 621.608398,329.831329 634.585327,327.719910 
	C645.844055,325.888062 656.621582,322.476562 666.525940,316.852539 
	C670.814880,314.417114 674.835938,311.071930 674.057068,304.407440 
M590.580078,496.002197 
	C578.300476,487.723145 565.556396,493.622803 552.307312,493.394318 
	C555.211426,499.442169 644.562622,580.849243 649.144043,582.328674 
	C649.697754,581.108276 649.032166,580.031494 648.644287,579.010986 
	C640.666260,558.021423 632.625854,537.055603 624.673523,516.056396 
	C623.581970,513.174072 621.569275,511.522034 618.917908,510.212769 
	C609.666199,505.644226 600.472229,500.958771 590.580078,496.002197 
M356.845062,498.453766 
	C358.026428,496.977966 360.052032,496.122253 360.363708,493.553650 
	C353.943817,493.113403 347.517365,493.362610 341.410400,492.084808 
	C333.195068,490.365875 326.473206,493.107025 319.604095,496.788025 
	C310.950043,501.425537 302.156006,505.808502 293.339783,510.132935 
	C290.309937,511.619110 288.379181,513.670166 287.174683,516.864014 
	C279.423218,537.417236 271.516235,557.911926 263.713257,578.445862 
	C263.234009,579.707092 262.056152,581.028625 263.838745,583.370483 
	C294.753448,555.152649 325.553101,527.039917 356.845062,498.453766 
M410.484711,440.025665 
	C413.794220,448.192566 417.244812,456.272247 423.819092,462.823761 
	C425.512451,460.389252 424.820435,458.349091 424.794128,456.427917 
	C424.669006,447.297668 424.017517,438.144073 425.109283,429.052582 
	C426.249664,419.556793 421.523102,411.055145 412.564331,407.349579 
	C407.969452,405.449005 406.411316,406.389496 406.384979,411.309082 
	C406.334167,420.808441 407.394257,430.169006 410.484711,440.025665 
M486.211060,439.601349 
	C486.924347,447.439972 484.575623,455.279175 485.759064,463.800293 
	C489.863617,460.588623 491.773315,456.721191 493.963623,453.066864 
	C501.729492,440.110321 504.471954,425.976257 503.803162,411.048584 
	C503.684326,408.396271 503.427582,405.889771 499.578644,406.700806 
	C491.768402,408.346558 484.342560,418.427979 485.176300,426.255341 
	C485.615204,430.375854 485.866852,434.516327 486.211060,439.601349 
M420.510559,632.063721 
	C416.342468,629.395752 413.929230,624.899536 409.872833,621.081055 
	C411.744446,633.908875 419.836548,641.731079 433.319855,644.580566 
	C444.328369,646.907104 455.516388,647.409180 466.623596,646.453613 
	C476.992096,645.561584 487.012299,642.861389 494.534027,634.721619 
	C497.728180,631.265015 499.694611,627.270813 500.548859,622.533142 
	C497.834595,622.109924 497.204773,623.960144 496.192749,625.115784 
	C492.401794,629.444763 487.911133,632.811523 482.704376,635.236877 
	C468.989960,641.625244 454.504822,641.021057 440.018921,639.672974 
	C433.149658,639.033691 426.711700,636.710571 420.510559,632.063721 
M436.308258,504.667328 
	C438.018036,517.861450 444.832977,528.520508 453.145477,538.410278 
	C455.347961,541.030640 456.804596,539.258118 458.178314,537.324341 
	C463.108795,530.383789 467.189636,522.957520 470.748718,515.242920 
	C472.381775,511.703156 474.115906,508.161530 473.940186,503.814941 
	C469.887604,511.946655 461.117157,514.688721 455.542480,520.948364 
	C449.121918,515.527039 441.573425,511.647949 436.308258,504.667328 
M450.585632,434.251862 
	C450.742554,431.447906 450.637604,428.597046 451.129517,425.853119 
	C451.628479,423.069733 452.143036,420.120178 449.148651,418.945251 
	C445.822327,417.640106 443.514771,420.138428 441.916992,422.761108 
	C438.528320,428.323273 442.442932,437.498627 449.459381,440.673553 
	C451.350647,439.139893 450.330841,436.996429 450.585632,434.251862 
M463.353638,439.684387 
	C465.543854,437.645935 467.548370,435.463562 468.762268,432.672729 
	C470.908936,427.737427 469.977448,422.751709 466.317444,420.110016 
	C464.856171,419.055328 463.275970,417.888245 461.322113,418.818878 
	C459.353546,419.756561 459.191956,421.659851 459.299225,423.507538 
	C459.576202,428.279114 459.943420,433.045685 460.299774,437.812347 
	C460.412109,439.314575 460.973999,440.392151 463.353638,439.684387 
M475.848785,438.818481 
	C480.703491,433.396698 481.786560,426.797821 481.483917,419.887817 
	C481.365540,417.184845 479.393982,415.548950 476.722870,416.019287 
	C473.625793,416.564636 472.477386,419.350891 472.505585,422.033508 
	C472.559387,427.148682 473.139771,432.260101 473.564514,437.367859 
	C473.638519,438.257782 474.319519,438.798157 475.848785,438.818481 
M436.773041,437.387878 
	C437.893372,432.002869 437.854919,426.540680 437.620636,421.098999 
	C437.504913,418.411896 436.155273,416.236572 433.047394,416.270782 
	C429.772705,416.306824 428.902740,418.751099 428.917786,421.386505 
	C428.948334,426.741913 430.136139,431.872314 432.899536,436.527313 
	C433.679749,437.841583 434.360413,439.921692 436.773041,437.387878 
M584.486084,351.028259 
	C585.447021,352.890961 586.173096,355.595795 589.013123,353.968597 
	C591.102661,352.771332 592.775269,350.819061 594.554626,349.120453 
	C595.338501,348.372040 595.593323,347.141418 594.750977,346.459473 
	C592.403870,344.559265 589.527649,343.166931 586.605591,343.942108 
	C583.441040,344.781647 583.090820,347.498871 584.486084,351.028259 
z"/>
<path fill="#000000" opacity="1.000000" stroke="none" 
	d="
M422.261902,205.741333 
	C415.665985,195.392044 406.805359,187.909317 397.104950,181.267746 
	C391.062714,177.130814 384.773163,173.276901 379.827881,167.748367 
	C373.544037,160.723389 374.587921,147.049332 382.119476,141.055527 
	C382.541077,144.788208 381.109131,148.001389 380.591064,151.306335 
	C379.281219,159.661743 380.498505,163.437866 387.612793,167.177078 
	C404.668854,176.141586 419.604370,187.558563 431.330383,202.972168 
	C431.607025,203.335815 432.129120,203.512741 433.407227,204.340637 
	C438.787781,187.850235 439.432495,171.022476 440.152588,154.207901 
	C440.758118,154.236008 441.363647,154.264099 441.969177,154.292206 
	C442.431061,159.795639 442.977478,165.293533 443.337799,170.803604 
	C444.175629,183.615829 443.787170,196.439514 443.289093,209.247238 
	C443.107269,213.923843 444.526093,216.133041 449.453247,215.806671 
	C452.934814,215.576035 456.456635,215.695419 459.945740,215.904556 
	C463.751617,216.132660 465.157623,214.948486 464.972473,210.774277 
	C464.182434,192.960938 464.377808,175.139252 465.685211,157.343918 
	C465.778595,156.072891 465.509766,154.614899 467.892975,153.388702 
	C468.842316,170.647751 469.202515,187.681488 474.545898,203.933411 
	C477.292419,203.400970 477.948151,201.673569 478.956360,200.442657 
	C488.997101,188.184418 500.697357,177.941879 514.814941,170.590652 
	C515.258057,170.359924 515.685669,170.099533 516.123535,169.858475 
	C528.399658,163.099518 529.583740,160.408554 526.703918,146.499527 
	C526.351379,144.796814 525.040100,143.130814 526.081604,141.221252 
	C533.393372,146.204361 534.590027,160.786942 528.222778,167.877823 
	C523.041931,173.647507 516.411743,177.604919 510.084625,181.902130 
	C501.044830,188.041718 492.877411,195.026230 486.858673,204.283493 
	C483.435638,209.548355 481.026703,215.081818 481.301880,221.563858 
	C481.513123,226.538818 483.841827,229.941727 488.774445,232.601822 
	C488.284668,229.409729 486.353912,226.671646 488.531708,224.185715 
	C490.927155,221.451309 494.335327,221.070007 497.650116,220.778854 
	C499.862793,220.584503 501.859711,220.061417 503.796692,218.963394 
	C523.360168,207.873123 542.775146,196.503326 562.592529,185.885147 
	C573.940552,179.804855 585.913025,180.592651 596.881348,187.277145 
	C607.578003,193.796097 614.160767,203.350769 614.297607,216.346176 
	C614.360413,222.306061 611.370972,226.978287 606.614197,231.459015 
	C605.359314,226.892410 608.796204,222.826050 605.727966,218.405090 
	C598.875916,234.466583 583.874939,239.475388 570.600952,246.763031 
	C557.122131,254.163132 543.318176,260.064392 527.231873,257.741119 
	C531.705444,260.677429 539.515076,261.510162 547.144409,260.320984 
	C563.393005,257.788330 578.129456,251.502518 591.920959,242.744843 
	C593.405273,241.802292 594.703003,240.298096 597.727112,240.784607 
	C594.804016,246.009064 591.120422,250.111343 587.002258,253.794830 
	C567.945679,270.839996 546.036499,273.631592 522.099548,266.853912 
	C511.183075,263.762970 501.994598,258.536652 494.972504,249.319946 
	C487.977386,240.138657 478.389313,235.619354 466.649506,236.492111 
	C464.744659,232.683823 466.687195,227.523514 462.537384,225.399292 
	C458.418457,223.290878 453.676086,224.449051 449.233521,224.609192 
	C441.947479,224.871887 442.881165,230.985748 442.017395,235.580017 
	C441.649017,235.860016 441.385254,236.235138 441.130249,236.229279 
	C427.970428,235.927338 418.357147,242.161514 410.585876,252.279953 
	C402.131561,263.287689 389.483948,266.470520 376.842896,268.880920 
	C349.763733,274.044434 328.097504,264.854126 311.622406,242.971054 
	C311.037903,242.194717 310.262970,241.460373 310.597961,239.411346 
	C331.558899,252.063477 352.678284,263.737793 379.546509,259.547607 
	C376.878448,257.823242 375.220337,258.417389 373.665344,258.321167 
	C365.647430,257.825012 357.733826,256.897980 350.438751,253.165710 
	C340.505310,248.083649 330.450653,243.221390 320.680878,237.841904 
	C312.901825,233.558563 306.178284,227.944168 302.794128,218.308304 
	C300.140350,222.784546 302.058594,226.398743 301.820923,229.852997 
	C296.456268,229.318130 292.814270,218.195541 293.711700,212.549850 
	C297.536407,188.487991 324.895020,174.551361 346.225189,186.234909 
	C365.655640,196.877884 384.856964,207.939621 404.135834,218.858200 
	C405.911041,219.863586 407.652008,220.742386 409.746307,220.664627 
	C410.244110,220.646149 410.746552,220.687531 411.243958,220.733246 
	C420.577606,221.591064 422.607544,225.331161 417.955933,233.092651 
	C424.067749,231.139084 427.090698,226.871216 426.973907,220.169342 
	C426.884277,215.028030 424.991577,210.428009 422.261902,205.741333 
M554.379395,206.941727 
	C548.243408,209.895172 542.106201,212.846054 535.971924,215.803055 
	C532.615479,217.421005 531.901001,219.698578 533.705811,223.092972 
	C537.290344,229.834686 543.100342,232.867493 550.628418,231.598495 
	C561.857117,229.705688 571.690735,212.482498 567.604309,201.096741 
	C563.143066,202.265762 559.169373,204.625717 554.379395,206.941727 
M342.102356,207.953476 
	C342.988800,216.495499 346.616028,223.576660 353.569366,228.713531 
	C361.421875,234.514679 370.891968,232.611053 376.018829,224.369156 
	C378.904449,219.730286 378.427338,217.728027 373.524323,215.294739 
	C364.727814,210.929184 355.877777,206.671066 347.032318,202.404892 
	C345.722504,201.773163 344.416443,200.829025 342.705566,201.595978 
	C341.378967,203.262207 341.428802,205.192322 342.102356,207.953476 
z"/>
<path fill="#000000" opacity="1.000000" stroke="none" 
	d="
M484.510193,371.605377 
	C463.120880,386.000732 442.834045,383.203766 423.069885,368.959503 
	C412.493958,361.337280 403.276520,352.195435 394.052643,343.061462 
	C392.871124,341.891449 391.488220,340.582855 392.513672,338.731445 
	C397.957703,328.902466 403.184235,318.939972 409.478149,309.321075 
	C413.361725,311.895538 414.877747,315.776917 417.469604,318.724854 
	C420.527069,322.202332 423.907928,323.887817 428.724945,323.831268 
	C446.861725,323.618439 465.004028,323.700836 483.142029,323.887360 
	C487.459747,323.931763 490.344666,322.140625 492.870667,318.930389 
	C495.294739,315.849701 496.866425,312.085968 499.712921,309.598145 
	C501.684296,309.972046 502.273987,311.241791 502.919464,312.360779 
	C507.575012,320.431122 512.153687,328.546082 516.841125,336.597748 
	C518.235535,338.993011 518.672241,340.908081 516.391418,343.219666 
	C506.457489,353.288025 496.759033,363.598206 484.510193,371.605377 
z"/>
<path fill="#000000" opacity="1.000000" stroke="none" 
	d="
M358.042603,283.787048 
	C368.703979,288.008270 378.563904,292.757660 385.575287,301.835815 
	C391.600189,309.636749 392.537598,325.098816 386.834259,333.843628 
	C384.644501,322.824829 382.043701,312.642761 373.609283,304.067139 
	C373.020477,309.079956 375.730438,313.067139 373.370392,317.781708 
	C369.681396,313.169281 366.701080,308.640167 362.597260,305.061707 
	C347.025665,291.483643 328.135101,285.205414 308.612762,280.467529 
	C293.059448,276.692902 277.238861,274.544342 261.189941,274.296967 
	C254.712433,274.197144 252.486145,271.967560 252.698547,265.414917 
	C253.093414,253.232224 251.160202,241.297073 248.790787,228.970749 
	C251.984848,229.119583 252.788315,231.289291 253.800781,232.988708 
	C258.562439,240.981064 260.894897,249.815186 262.302979,258.899597 
	C262.743561,261.741974 263.539368,263.418793 266.780914,263.697296 
	C297.946564,266.374695 328.126343,273.600983 358.042603,283.787048 
z"/>
<path fill="#000000" opacity="1.000000" stroke="none" 
	d="
M546.066406,306.066650 
	C541.956055,309.481140 539.705200,313.988098 536.467957,318.495728 
	C534.031067,313.224396 536.543396,309.017120 537.203674,303.332855 
	C527.926025,311.979553 525.531372,322.509583 523.095947,333.253754 
	C517.730103,327.284027 517.941711,311.351349 523.012878,303.739197 
	C528.936829,294.846985 537.549072,289.622559 547.047485,285.808929 
	C570.294739,276.475037 594.610657,270.990051 619.205078,266.664246 
	C627.060303,265.282593 634.947998,263.997162 642.938477,263.703674 
	C646.449097,263.574707 647.217163,261.460938 647.694031,258.515167 
	C649.081299,249.946350 651.228943,241.583282 655.606873,233.968109 
	C656.642944,232.165985 657.574036,230.198822 660.232361,229.132477 
	C660.689026,235.576736 658.640869,241.277237 658.073181,247.117661 
	C657.523865,252.769073 657.296692,258.393311 657.299683,264.048004 
	C657.303894,272.054260 655.285278,274.092773 647.414246,274.311768 
	C623.786011,274.969177 600.814880,279.216461 578.575806,287.241821 
	C566.738342,291.513611 555.824219,297.458527 546.066406,306.066650 
z"/>
<path fill="#000000" opacity="1.000000" stroke="none" 
	d="
M240.204376,250.239441 
	C240.038452,255.680435 241.269760,260.594482 240.855087,265.633270 
	C240.557083,269.254578 239.157211,270.401581 235.545944,270.356201 
	C217.726990,270.132416 199.905273,269.944641 182.091110,270.821899 
	C163.807144,271.722260 145.558533,273.012695 127.370529,275.122711 
	C125.023773,275.394928 122.643120,275.374969 120.278168,275.490387 
	C120.233330,274.992767 120.188492,274.495148 120.143661,273.997528 
	C128.774506,272.030670 137.405472,270.064362 146.036163,268.096863 
	C171.408081,262.313049 197.123291,259.091034 223.096283,257.840790 
	C229.216446,257.546234 230.329727,256.772736 230.545197,250.529282 
	C230.797729,243.211014 230.593262,235.877914 230.688019,228.552551 
	C230.710464,226.816742 230.017441,224.955475 231.555573,222.761154 
	C236.375168,231.435501 238.576004,240.508270 240.204376,250.239441 
z"/>
<path fill="#000000" opacity="1.000000" stroke="none" 
	d="
M689.800903,257.940033 
	C712.886292,259.148468 735.291626,262.063202 757.465698,266.702087 
	C766.583618,268.609528 775.661194,270.711151 784.747986,272.764832 
	C785.991760,273.045929 787.365417,273.208801 788.550903,275.055725 
	C783.102844,276.025452 778.089172,274.565948 773.173157,274.068115 
	C742.815308,270.993774 712.389404,269.906403 681.897522,270.181366 
	C681.398071,270.185852 680.899109,270.228485 680.399597,270.240601 
	C668.352905,270.532715 667.783142,269.770477 668.980103,257.724701 
	C670.072083,246.736176 671.890930,235.970306 676.739624,225.923386 
	C677.148315,225.076523 677.725525,224.310989 678.295471,223.393295 
	C679.927490,224.759216 679.324585,226.360764 679.289917,227.726196 
	C679.117493,234.520752 678.672546,241.275208 679.220947,248.113358 
	C679.983826,257.627106 679.651672,257.653748 689.800903,257.940033 
z"/>
<path fill="#000000" opacity="1.000000" stroke="none" 
	d="
M506.144897,276.894348 
	C516.630859,283.088287 527.400146,280.561829 538.082153,279.283875 
	C539.564270,279.106537 541.040588,278.856110 542.527466,278.756348 
	C543.147278,278.714752 543.787659,278.979004 544.392822,279.099091 
	C544.563232,281.104126 542.947571,281.386749 541.892761,281.911835 
	C537.731018,283.983612 533.501221,285.920746 529.274536,287.859558 
	C518.634338,292.740326 508.512634,292.717316 498.802216,285.257141 
	C493.073944,280.856262 486.731628,278.058197 479.068359,278.082245 
	C474.042450,278.098053 470.392120,274.575104 467.780182,269.405884 
	C473.470123,269.637024 478.322510,272.888214 483.955902,270.957825 
	C481.978058,266.357574 477.395081,266.067474 473.926239,264.174194 
	C477.392853,260.658112 485.552521,260.982849 491.146423,264.777771 
	C496.380646,268.328674 500.339783,273.462738 506.144897,276.894348 
z"/>
<path fill="#000000" opacity="1.000000" stroke="none" 
	d="
M399.244812,279.413391 
	C406.427429,276.544586 411.383484,271.294556 416.790039,266.644379 
	C422.660675,261.595001 430.662781,260.260529 436.831543,263.426483 
	C433.814850,266.572693 428.154633,265.967682 426.231445,270.940674 
	C432.075531,273.065521 437.022430,269.964203 442.303436,268.847839 
	C440.815918,274.033081 435.842438,278.226471 430.174225,278.221954 
	C423.824005,278.216888 418.269348,280.178192 413.571930,284.025818 
	C401.912903,293.575653 389.779236,292.713074 377.283356,286.297760 
	C373.410950,284.309692 369.018768,283.100311 364.957886,278.867249 
	C377.013824,279.177917 387.940247,282.716858 399.244812,279.413391 
z"/>
<path fill="#000000" opacity="1.000000" stroke="none" 
	d="
M393.144562,192.762878 
	C403.760803,198.427170 411.781433,206.314896 418.664764,216.154434 
	C411.565765,216.086044 383.530121,196.606628 375.356110,186.206635 
	C382.179901,187.010086 387.503632,189.787598 393.144562,192.762878 
z"/>
<path fill="#000000" opacity="1.000000" stroke="none" 
	d="
M520.893066,197.939209 
	C511.605316,204.916000 503.557953,213.188766 491.865753,216.891296 
	C497.402802,203.530258 521.988220,186.885529 535.134094,186.588837 
	C529.948792,190.721725 525.560486,194.219330 520.893066,197.939209 
z"/>
<path fill="#000000" opacity="1.000000" stroke="none" 
	d="
M493.217957,253.767563 
	C497.341583,258.284332 500.442474,263.007050 502.298523,268.755951 
	C490.075745,258.102264 476.712952,250.081467 459.468719,247.927414 
	C468.965210,243.272888 484.970093,246.327850 493.217957,253.767563 
z"/>
<path fill="#000000" opacity="1.000000" stroke="none" 
	d="
M412.780243,265.701721 
	C410.967072,266.719543 410.161194,268.704346 408.082703,268.785919 
	C410.728577,252.701477 435.727844,239.860764 451.085938,247.988434 
	C435.814575,249.906097 423.529510,255.880203 412.780243,265.701721 
z"/>
<path fill="#000000" opacity="1.000000" stroke="none" 
	d="
M668.615234,355.480896 
	C674.476929,353.407715 680.058655,351.676758 685.425293,349.431671 
	C688.672668,348.073181 691.065247,348.751251 693.709534,350.684784 
	C728.800720,376.343964 763.930969,401.949677 799.058044,427.559723 
	C801.704285,429.489044 804.610596,431.100342 807.401733,434.399994 
	C804.101379,434.096771 802.293213,432.623169 800.422241,431.461212 
	C767.593018,411.072540 734.784973,390.649872 701.964111,370.247711 
	C700.163940,369.128662 698.420288,367.681061 694.450928,368.975647 
	C715.978210,385.275970 737.967651,399.249084 758.784180,414.967865 
	C727.320190,401.917694 697.479065,385.425720 666.318726,371.845917 
	C665.949280,372.495636 665.579834,373.145386 665.210327,373.795135 
	C678.940918,382.110443 692.671448,390.425751 706.402039,398.741058 
	C706.129517,399.256805 705.856995,399.772552 705.584473,400.288300 
	C679.256592,391.025116 652.928650,381.761963 626.600708,372.498779 
	C626.623169,371.901489 626.645630,371.304199 626.668091,370.706909 
	C640.526978,365.673431 654.385803,360.639954 668.615234,355.480896 
z"/>
<path fill="#000000" opacity="1.000000" stroke="none" 
	d="
M210.430969,385.539185 
	C189.379959,395.806152 168.663406,405.908295 147.946838,416.010406 
	C147.633316,415.488434 147.319778,414.966461 147.006256,414.444489 
	C168.351547,399.636719 189.696838,384.828979 211.042130,370.021210 
	C207.624603,367.534576 205.672089,369.342896 203.718369,370.555237 
	C171.042252,390.832092 138.394470,411.154602 105.739662,431.465790 
	C104.072716,432.502655 102.569069,433.884949 99.963448,434.115631 
	C100.415108,431.887329 102.184128,431.208557 103.497498,430.250763 
	C139.014908,404.349426 174.604126,378.545929 210.012253,352.496185 
	C214.675995,349.065063 218.618271,348.344269 224.118805,350.465363 
	C240.729691,356.870697 257.575531,362.666016 274.317139,368.734009 
	C276.159943,369.401947 278.143890,369.873596 280.463715,372.199554 
	C253.091370,381.848389 226.325165,391.283539 199.558960,400.718689 
	C199.310623,400.227203 199.062286,399.735748 198.813950,399.244263 
	C212.651215,390.910431 226.488480,382.576599 240.325745,374.242767 
	C240.007919,373.638855 239.690109,373.034912 239.372284,372.430969 
	C229.408447,375.710571 220.357574,381.196472 210.430969,385.539185 
z"/>
<path fill="#000000" opacity="1.000000" stroke="none" 
	d="
M670.944885,484.106018 
	C658.610596,475.540710 646.518494,467.270081 633.209106,461.115784 
	C632.813721,461.736938 632.418335,462.358093 632.022949,462.979248 
	C646.448669,472.376984 660.874390,481.774719 675.300049,491.172455 
	C675.017090,491.685089 674.734070,492.197693 674.451050,492.710327 
	C644.172363,479.473663 613.893677,466.237030 582.549866,452.534760 
	C587.130554,449.908691 590.881836,450.343262 594.346558,449.783203 
	C603.536865,448.297485 612.788025,447.190948 622.007629,445.881989 
	C626.066345,445.305695 629.698364,445.672729 633.412781,448.000275 
	C649.212891,457.900940 665.618713,466.855530 679.670410,479.367126 
	C685.562012,484.613007 690.648376,490.517853 695.480225,496.682587 
	C696.455750,497.927094 697.654602,499.241364 697.118286,501.885315 
	C687.688599,496.863586 679.898987,489.913849 670.944885,484.106018 
z"/>
<path fill="#000000" opacity="1.000000" stroke="none" 
	d="
M313.866943,457.997437 
	C287.626160,469.441742 261.728485,480.723053 235.830826,492.004333 
	C235.535202,491.521881 235.239594,491.039398 234.943985,490.556915 
	C248.468109,480.705688 263.384216,472.777100 276.277069,461.989410 
	C253.081955,471.569427 234.021332,487.952209 212.321228,501.570343 
	C212.208481,497.741730 214.088715,496.136414 215.398407,494.385101 
	C224.088867,482.764099 235.143661,473.679871 247.118744,465.725311 
	C256.684326,459.371216 266.634094,453.597931 276.263031,447.335754 
	C281.102570,444.188293 285.915100,446.037201 290.765411,446.637024 
	C302.110992,448.040100 313.444733,449.538544 326.139160,451.172913 
	C322.207794,455.263306 317.748566,455.785309 313.866943,457.997437 
z"/>
<path fill="#000000" opacity="1.000000" stroke="none" 
	d="
M611.664490,535.358276 
	C595.232117,521.202637 578.001282,508.658691 559.158264,495.980194 
	C565.887817,493.770508 570.844849,495.401031 575.659241,496.598480 
	C586.931396,499.402283 596.479187,505.927490 606.653931,511.179993 
	C617.046143,516.544739 623.580017,524.370361 627.436584,535.204895 
	C629.914551,542.166443 633.423035,548.761108 636.469604,555.520264 
	C636.092773,555.821289 635.715881,556.122375 635.338989,556.423401 
	C627.538635,549.477600 619.738281,542.531860 611.664490,535.358276 
z"/>
<path fill="#000000" opacity="1.000000" stroke="none" 
	d="
M329.598206,512.644836 
	C311.112244,526.251587 294.020111,540.985291 277.576324,556.539185 
	C276.085999,554.766663 276.941864,553.767395 277.401337,552.760498 
	C281.963715,542.761108 286.547211,532.771423 291.103302,522.769165 
	C291.805664,521.227234 292.628021,519.836487 294.117798,518.900635 
	C306.097748,511.375427 317.761719,503.308014 331.183319,498.349854 
	C336.396820,496.423950 341.768921,495.485962 347.227570,494.874573 
	C348.795013,494.699005 350.568726,494.225769 352.463593,496.592926 
	C344.893036,501.905121 337.390625,507.169464 329.598206,512.644836 
z"/>
</svg>